#!OML:ASF E:/inclinewalkrobotboard/Project1/Captureday1/Session1/subject1.ASF
:FULLY-SPECIFIED
:DEGREES
201
root 0 0 0 -1.5724758174013695 -2.0883221041418714 -2.5114685123388973
lowerback 9.933699691121376 0.57738068560289 0.1284716695917817
upperback 0.012998388900914093 0.8317403167106358 1.1333927206505008
thorax -5.535154015218224 0.4035976831648815 0.978823078615094
lowerneck -13.50550074492681 -2.7536052783293665 -0.9484346250904193
upperneck 15.889800627436822 -3.7349964792341486 1.4479142028425644
head 7.374222977909719 -1.7564031105736049 0.26418009687167593
rclavicle -2.6279234822058977E-16 -1.541165934334063E-16
rhumerus -20.477750919208333 -8.220943369580187 -68.29357392245018
rradius 57.79946070286122
rwrist -7.077516425723793
rhand -13.737481996941828 -6.288062673259915
rfingers 7.125019999999878
rthumb 12.407904586576374 -35.566838884508954
lclavicle -8.267777811239602E-16 -4.1921645629526536E-16
lhumerus -39.60815059505837 0.25616497072147615 83.2815154675887
lradius 38.24721560664362
lwrist 2.695720662311603
lhand -19.44370060138354 0.8447086090124607
lfingers 7.125019999999878
lthumb 6.78127594592385 30.385446705713463
rfemur -9.287278904666525 2.0485772988918227 14.461349971921308
rtibia 28.584583587105698
rfoot -1.3162252382103303 -3.3194589726534964
rtoes 3.6306614621521214
lfemur 0.5142174074750336 -4.226057089622489 -19.949312953174555
ltibia 19.129334867002967
lfoot -18.550056039949588 4.743860675066222
ltoes -24.08614982668846
202
root 0 0 0 -1.9557402817018108 -0.9772125499858915 -0.45744619091701555
lowerback 10.043119123176401 -0.26146245001846324 -1.8313358765620937
upperback 0.18131962888409497 -0.4979176635838163 1.1995144030182991
thorax -5.411641698092224 -0.20519133888074825 2.3464926310391627
lowerneck -14.245164577095471 -2.6052208532322743 -1.345156077596909
upperneck 16.871355015366785 -3.3907468546338198 1.1385340638068282
head 7.77276575339969 -1.6353511984118003 0.24486635913624075
rclavicle -2.161293013298572E-16 -9.344118791022258E-17
rhumerus -20.16317828984046 -7.855145173672091 -67.9487774743508
rradius 58.85401433209222
rwrist -7.491642236153489
rhand -13.58738275590197 -7.298927202948102
rfingers 7.125019999999873
rthumb 12.552706013571544 -36.566877511618706
lclavicle -7.96465287243157E-16 -3.7741835022045204E-16
lhumerus -39.42135128001735 0.25437666529555314 83.26614471035744
lradius 37.96346226732708
lwrist 2.7755388896703734
lhand -19.644520602502755 1.5007867941157862
lfingers 7.125019999999883
lthumb 6.587936316174286 31.024542032682135
rfemur -9.98571274953052 1.8254031671115847 13.904172992633558
rtibia 29.087075752721958
rfoot -0.7583227417317002 -3.347554186293163
rtoes 3.659592976527898
lfemur 1.558977410815678 -4.386062674677861 -20.563732467051985
ltibia 17.87460791384749
lfoot -19.016802279051088 4.852739995065617
ltoes -23.63776018296095
203
root 0 0 0 -2.111467274888326 -0.4202273301003554 0.5468820287997125
lowerback 10.09122968970571 -0.671764881981741 -2.802987945892361
upperback 0.2512008111202338 -1.1569035048615222 1.2265639123914451
thorax -5.358139245378548 -0.5057685229676537 3.0168996850122216
lowerneck -14.563922700841267 -2.530133741733175 -1.5243439908763852
upperneck 17.2031889363382 -3.2250067777141753 1.0131768915827921
head 7.936356018088801 -1.573820861286347 0.24288988726385857
rclavicle -2.177886129143789E-16 -1.1018740483462301E-16
rhumerus -20.23718421233557 -7.932232144950499 -68.01461506944968
rradius 58.648090011390764
rwrist -7.400656635476333
rhand -13.612804618211035 -7.106645684184199
rfingers 7.125019999999874
rthumb 12.52636665121019 -36.38044788642698
lclavicle -7.589401048048414E-16 -3.7804574471443657E-16
lhumerus -39.36449559722996 0.2131551690669408 83.26803152243971
lradius 37.9806695724939
lwrist 2.806980399434087
lhand -19.67168130731604 1.5744412637968246
lfingers 7.125019999999883
lthumb 6.562846508191896 31.097043750579356
rfemur -10.033409245463046 1.7862325552099687 13.683401003658549
rtibia 28.775390963716482
rfoot -0.7092341500778836 -3.3408694033304895
rtoes 3.585688068572544
lfemur 1.457665489252011 -4.246535450313578 -20.73672209627116
ltibia 18.663761007909304
lfoot -18.40629048578669 4.322294189415626
ltoes -22.509520256309276
204
root 0 0 0 -2.189574613485864 -0.3262486748906275 0.767930708445038
lowerback 10.1301143352245 -0.7669520706378701 -2.969862812149737
upperback 0.2859364986588802 -1.3040587597661957 1.2584279433256769
thorax -5.333899660788695 -0.5714355588567263 3.164590515818854
lowerneck -14.787939525012963 -2.5283035866057535 -1.613302097045684
upperneck 17.443100580110205 -3.1961061854772397 0.951803066593099
head 8.047448742442493 -1.5659250751715288 0.233971107557329
rclavicle -2.0564561656817975E-16 -1.107511502728326E-16
rhumerus -20.152548257101472 -7.830567241038637 -67.90935965008977
rradius 58.97034974768452
rwrist -7.509763301816642
rhand -13.56595282612506 -7.418882415176633
rfingers 7.125019999999872
rthumb 12.570922196897312 -36.687110766512674
lclavicle -7.454875622640266E-16 -3.776947601536977E-16
lhumerus -39.415975341689126 0.19615394628495772 83.273780784195
lradius 38.09782933549116
lwrist 2.7894546884807
lhand -19.60416683692952 1.364896463220047
lfingers 7.12501999999988
lthumb 6.627055167969097 30.88174359251082
rfemur -10.168555398442184 1.7697637100765298 13.721524561314917
rtibia 29.099423100721268
rfoot -0.5966259170084618 -3.3467353585514514
rtoes 3.7067654156949628
lfemur 0.7670605235526953 -4.000138841994775 -20.653325621784667
ltibia 20.22434948149808
lfoot -17.418222576260312 3.613935757883452
ltoes -21.242718368995142
205
root 0 0 0 -2.2446235714504885 -0.3137759126393804 0.8364197642650031
lowerback 10.157400303779431 -0.8038729749719136 -2.9912063249729504
upperback 0.3100475499021799 -1.3566722411230292 1.2882092257692455
thorax -5.317572345960641 -0.594140308092627 3.2145574447737983
lowerneck -14.967048268858138 -2.5352137554557217 -1.6738534919018029
upperneck 17.651562073058788 -3.1871834159548778 0.9042504852236304
head 8.135088204517363 -1.5658910247333264 0.2237811854375562
rclavicle -1.9506080646669495E-16 -1.0758393528090767E-16
rhumerus -20.04321226377792 -7.706474079534747 -67.7824295578175
rradius 59.35771604580641
rwrist -7.646497828269849
rhand -13.512334882194391 -7.786890557166043
rfingers 7.1250199999998705
rthumb 12.622607114309856 -37.04669428949181
lclavicle -7.409247627916706E-16 -3.74377526485058E-16
lhumerus -39.405401223533566 0.19005104160966102 83.27170172618705
lradius 38.09641581970907
lwrist 2.7961913187324994
lhand -19.613065621249245 1.3905300760336914
lfingers 7.12501999999988
lthumb 6.618931810357806 30.906550816818708
rfemur -10.42476179613854 1.7785226983498874 14.062848500893457
rtibia 30.161364654637055
rfoot -0.4192565043662091 -3.378040924939
rtoes 4.0347037831544625
lfemur -0.32768056359234166 -3.7078446120579107 -20.358718141046676
ltibia 22.158945593189188
lfoot -16.263293570689438 2.8764784819253757
ltoes -20.053759018738667
206
root 0 0 0 -2.2933210497756917 -0.35864639525387454 0.8050034408708435
lowerback 10.179016354877799 -0.8056023152798863 -2.910644688275498
upperback 0.33074911254664746 -1.3501698153991017 1.321654255724905
thorax -5.303059357590202 -0.5901806736078056 3.2032250874196206
lowerneck -15.14298735654754 -2.5482839714771197 -1.7231719957184752
upperneck 17.871215286331086 -3.1889081735547973 0.8568825327330656
head 8.219578314507647 -1.570914858080929 0.21046052545327826
rclavicle -1.9262882923073625E-16 -1.0386877425218441E-16
rhumerus -19.965297156179403 -7.628872100625571 -67.69569246188846
rradius 59.60762404737696
rwrist -7.739181407826124
rhand -13.479256229608353 -8.014980236850986
rfingers 7.125019999999869
rthumb 12.654337446104494 -37.267872639853636
lclavicle -7.388893808257632E-16 -3.6394325012823285E-16
lhumerus -39.25722874599013 0.17940212316288498 83.25649365197675
lradius 37.898067257432004
lwrist 2.862643327647553
lhand -19.768903553222046 1.8661232845334084
lfingers 7.125019999999884
lthumb 6.470859393265324 31.388318498742173
rfemur -10.87897673513815 1.9517153503115736 15.06204319209731
rtibia 31.77556898440148
rfoot -0.6284814740184828 -3.583323989078888
rtoes 4.396716227353154
lfemur -2.740163572851477 -3.2072166915325817 -19.475253260218317
ltibia 25.62474768038407
lfoot -14.32199109747252 1.8263845626955346
ltoes -18.612018713371516
207
root 0 0 0 -2.314157836711192 -0.44629750598070905 0.6803455002502479
lowerback 10.187277298682197 -0.7672314066581278 -2.755943737588996
upperback 0.33977637162668023 -1.280849640807848 1.3432261006549906
thorax -5.2959813115949315 -0.5582214079479105 3.129802568810234
lowerneck -15.23571631027154 -2.5631938756508976 -1.7393264877155237
upperneck 17.99827764643431 -3.2035376125196837 0.832852147690109
head 8.2634365819064 -1.579574900578553 0.20033427150371838
rclavicle -1.954223888804043E-16 -1.0188447446637511E-16
rhumerus -20.0005497429184 -7.6703442787202745 -67.73582500731925
rradius 59.48239538492817
rwrist -7.695343349769139
rhand -13.496240212191019 -7.895301020759673
rfingers 7.12501999999987
rthumb 12.637569578587954 -37.15124155921683
lclavicle -7.334958817599166E-16 -3.6187675990592214E-16
lhumerus -39.10095481361044 0.17334853693352015 83.24290126438218
lradius 37.677957858786684
lwrist 2.929956724468564
lhand -19.934882061088253 2.371353004179767
lfingers 7.125019999999887
lthumb 6.314147504990268 31.90356190475175
rfemur -11.004340363562322 2.218445344180533 16.010072218302362
rtibia 32.269810992664915
rfoot -1.2879768685949045 -3.8165371360397966
rtoes 4.378354095303115
lfemur -5.235802990589844 -2.766219676213818 -18.449116425955012
ltibia 28.76493661413682
lfoot -12.625989461957154 1.0418171608279732
ltoes -17.690000736173502
208
root 0 0 0 -2.3213531156906217 -0.6284799726573647 0.39290047823544727
lowerback 10.192156895415033 -0.6666624137352557 -2.436654953621439
upperback 0.3436421686729341 -1.1088205644452458 1.3668670781364312
thorax -5.292493137249883 -0.4798950004360264 2.9520795777053976
lowerneck -15.307360801400588 -2.590386517857382 -1.7351219379002099
upperneck 18.108489153094826 -3.2413466765175443 0.817543180906428
head 8.29711466576025 -1.597504959369592 0.18760306978640076
rclavicle -2.0213633046721666E-16 -1.0139346701538227E-16
rhumerus -20.071503648854975 -7.751739554386219 -67.81794853090089
rradius 59.225968623678995
rwrist -7.607318945842085
rhand -13.531233738520033 -7.651925115066941
rfingers 7.1250199999998705
rthumb 12.603685497182829 -36.91180002189293
lclavicle -7.26857144579266E-16 -3.5954631798155675E-16
lhumerus -38.939216902760954 0.16419830248274592 83.23025391503066
lradius 37.45485922395979
lwrist 3.0002853918704364
lhand -20.104606043368868 2.8873057822053347
lfingers 7.125019999999891
lthumb 6.153969905728335 32.43023773631684
rfemur -10.708411572139815 2.6372988567451445 17.1656891880859
rtibia 31.89477289879425
rfoot -2.4697570751043516 -4.074278442557472
rtoes 4.077518538419389
lfemur -9.040252545987714 -2.134280985131327 -16.886033922654512
ltibia 33.27128155606514
lfoot -10.15603929247281 -0.04009874903557442
ltoes -16.345809643068847
